<svg width="45" height="45" viewBox="0 0 45 45" fill="none" xmlns="http://www.w3.org/2000/svg">
<g clip-path="url(#clip0_435_2698)">
<g clip-path="url(#clip1_435_2698)">
<path d="M22.25 0H12.6083C12.1988 0 11.8667 0.332084 11.8667 0.741667V5.93333H0.741667C0.332084 5.93333 0 6.26542 0 6.675V43.7583C0 44.1679 0.332084 44.5 0.741667 44.5H22.25C22.6596 44.5 22.9917 44.1679 22.9917 43.7583V0.741667C22.9917 0.332084 22.6596 0 22.25 0ZM21.5083 38.5667H13.35V37.0833H21.5083V38.5667ZM1.48333 11.125H11.8667V33.375H1.48333V11.125ZM21.5083 8.15833H13.35V5.93333H21.5083V8.15833ZM1.48333 34.8583H11.8667V37.0833H1.48333V34.8583ZM13.35 35.6V9.64167H21.5083V35.6H13.35ZM21.5083 1.48333V4.45H13.35V1.48333H21.5083ZM11.8667 7.41667V9.64167H1.48333V7.41667H11.8667ZM1.48333 38.5667H11.8667V43.0167H1.48333V38.5667ZM13.35 43.0167V40.05H21.5083V43.0167H13.35Z" fill="black"/>
<path d="M44.4761 40.6044L35.5761 6.48777C35.5265 6.29656 35.4026 6.13324 35.2317 6.03365C35.0611 5.93442 34.858 5.90726 34.6671 5.95832L23.5421 8.92499C23.1481 9.03001 22.9127 9.43344 23.0156 9.82817L31.9156 43.9448C31.9652 44.136 32.0894 44.2994 32.2603 44.3986C32.4309 44.4975 32.6341 44.5243 32.8246 44.4728L43.9496 41.5062C44.3428 41.4012 44.5779 40.9985 44.4761 40.6044ZM25.8189 14.6979L35.5109 12.114L35.8597 13.4489L26.1684 16.0367L25.8189 14.6979ZM36.2341 14.888L40.5356 31.3883L30.8473 33.9733L26.5457 17.4719L36.2341 14.888ZM40.9134 32.8242L41.6728 35.7347L31.9808 38.3186L31.2243 35.4092L40.9134 32.8242ZM34.3289 7.58325L35.1365 10.6796L25.4445 13.2627L24.6376 10.1679L34.3289 7.58325ZM33.1628 42.8494L32.3552 39.753L42.0472 37.1684L42.8541 40.2633L33.1628 42.8494Z" fill="black"/>
<path d="M9.64155 13.3501H3.70822C3.29864 13.3501 2.96655 13.6822 2.96655 14.0918V20.0251C2.96655 20.4347 3.29864 20.7668 3.70822 20.7668H9.64155C10.0511 20.7668 10.3832 20.4347 10.3832 20.0251V14.0918C10.3832 13.6822 10.0511 13.3501 9.64155 13.3501ZM8.89989 19.2834H4.44989V14.8334H8.89989V19.2834Z" fill="black"/>
</g>
</g>
<defs>
<clipPath id="clip0_435_2698">
<rect width="45" height="45" fill="white"/>
</clipPath>
<clipPath id="clip1_435_2698">
<rect width="44.5" height="44.5" fill="white"/>
</clipPath>
</defs>
</svg>
