<svg width="150" height="150" viewBox="0 0 150 150" fill="none" xmlns="http://www.w3.org/2000/svg">
<path d="M105.204 42.7212L105.206 42.723C108.262 46.0736 110.429 50.1159 111.512 54.49C112.595 58.8628 112.561 63.4312 111.414 67.7882C110.955 69.7249 110.302 71.6121 109.465 73.422L109.464 73.425C109.178 74.0253 108.873 74.6191 108.548 75.2064M105.204 42.7212L108.285 75.0613M105.204 42.7212C101.444 38.6692 96.4184 35.9656 90.9222 35.0367L90.9222 35.0367L90.9184 35.0361C86.4139 34.3341 81.8028 34.7355 77.4936 36.2047C73.1852 37.6737 69.3112 40.165 66.2151 43.4583M105.204 42.7212L66.2151 43.4583M108.548 75.2064L108.285 75.0613M108.548 75.2064C108.548 75.2064 108.548 75.2063 108.548 75.2063L108.285 75.0613M108.548 75.2064C107.257 77.5445 105.658 79.7039 103.791 81.6286M108.285 75.0613C107.008 77.3762 105.424 79.5144 103.575 81.4202C100.99 84.1084 97.8792 86.2545 94.4287 87.729C90.9782 89.2035 87.2599 89.976 83.4977 90C82.0355 90.0027 80.5759 89.8821 79.1347 89.6393C73.7031 88.7213 68.7375 86.0497 65.0228 82.0466C62.0117 78.7483 59.8731 74.7717 58.7957 70.468C57.7183 66.1644 57.7353 61.666 58.8452 57.3703M103.791 81.6286C103.791 81.6284 103.791 81.6283 103.791 81.6281L103.575 81.4204L103.79 81.6291C103.79 81.6289 103.791 81.6288 103.791 81.6286ZM103.791 81.6286C101.178 84.3458 98.0336 86.5147 94.5466 88.0049C91.0593 89.4951 87.3015 90.2757 83.4996 90.2999L83.4982 90.3C82.0192 90.3028 80.5427 90.1807 79.0849 89.9351L79.0847 89.9351C73.5885 89.0062 68.563 86.3027 64.8029 82.2507L64.8012 82.2489C61.7569 78.9141 59.5942 74.8931 58.5047 70.5409C57.4152 66.1891 57.4323 61.6405 58.5543 57.2968M58.5543 57.2968C58.5542 57.2973 58.554 57.2978 58.5539 57.2984L58.8452 57.3703M58.5543 57.2968C58.9648 55.6365 59.5193 54.0138 60.2117 52.4467L60.2117 52.4466C60.5988 51.5712 60.9892 50.7262 61.4592 49.8791C62.7491 47.5415 64.3484 45.3825 66.2151 43.4583M58.5543 57.2968C58.5544 57.2963 58.5546 57.2958 58.5547 57.2953L58.8452 57.3703M58.8452 57.3703C59.2515 55.7264 59.8005 54.1197 60.4861 52.568M60.4861 52.568C60.8722 51.6948 61.2583 50.8596 61.7216 50.0244C62.9991 47.7094 64.583 45.5712 66.432 43.6655C69.4946 40.4073 73.3273 37.9422 77.5905 36.4887C81.8536 35.0351 86.4156 34.638 90.8722 35.3325C96.3038 36.2505 101.269 38.9222 104.984 42.9252L60.4861 52.568ZM60.4861 52.568L66.2151 43.4583M107.807 55.4625C108.507 58.3851 108.631 61.4111 108.174 64.3771L97.7686 58.806L104.111 47.3545C105.855 49.8008 107.11 52.5524 107.807 55.4625ZM75.5359 85.1833L75.5327 85.1821C73.8639 84.5621 72.29 83.7191 70.8554 82.677L70.8555 82.677L70.8516 82.6743L70.4504 82.3925C69.7884 81.8919 69.1576 81.3526 68.5616 80.7774L75.5863 68.0625L85.4616 73.3408L78.3793 86.0555H78.377C77.5633 85.869 76.7617 85.6344 75.9768 85.3529L75.5359 85.1833ZM94.4517 39.8834L94.4549 39.8846C96.1234 40.5053 97.6972 41.3483 99.1323 42.3898L99.1323 42.3898L99.1361 42.3925L99.5372 42.6742C100.199 43.1748 100.83 43.7142 101.426 44.2893L94.4011 57.0046L84.5639 51.7631L91.609 39.0113H91.6105C92.4242 39.1982 93.2258 39.4328 94.011 39.7138L94.4517 39.8834ZM66.5166 48.9909L66.5181 48.9889C66.7265 48.7095 66.934 48.4498 67.1601 48.1905C67.2511 48.0861 67.3655 47.9493 67.4911 47.7992C67.6583 47.5992 67.8454 47.3755 68.0234 47.1731L79.4007 53.2585L74.0345 62.9647L62.5519 56.8346C62.7882 56.059 63.0544 55.3013 63.3504 54.5614L63.542 54.1091C63.5421 54.109 63.5421 54.1089 63.5421 54.1088C63.8875 53.2976 64.249 52.5127 64.6846 51.7491C65.2364 50.7932 65.8483 49.872 66.5166 48.9909ZM61.7985 60.6627L72.2192 66.2419L65.8759 77.7125C64.1286 75.2674 62.8705 72.5163 62.1703 69.606C61.4649 66.6746 61.3392 63.6385 61.7985 60.6627ZM101.961 77.8546L90.5681 71.8074L95.9331 62.1033L107.417 68.3072C107.18 69.0829 106.908 69.8468 106.599 70.599C106.599 70.5996 106.599 70.6001 106.598 70.6007L106.407 71.0525C106.061 71.8642 105.701 72.6477 105.266 73.3906C104.87 74.0616 104.445 74.7151 103.991 75.3493V75.2232L103.442 76.0319C103.354 76.1623 103.255 76.2864 103.147 76.4185C103.13 76.4391 103.113 76.4599 103.096 76.481C103.004 76.5927 102.907 76.7116 102.813 76.8371C102.639 77.0711 102.281 77.4866 101.961 77.8546ZM87.2209 70.0258L77.3821 64.7474L82.7484 55.041L92.6238 60.3193L87.2209 70.0258ZM86.493 38.4608H86.4961H86.4991H86.5022H86.5052H86.5083H86.5113H86.5144H86.5174H86.5205H86.5235H86.5266H86.5297H86.5327H86.5358H86.5388H86.5419H86.5449H86.548H86.551H86.5541H86.5571H86.5602H86.5632H86.5663H86.5694H86.5724H86.5755H86.5785H86.5816H86.5846H86.5877H86.5907H86.5938H86.5968H86.5999H86.603H86.606H86.6091H86.6121H86.6152H86.6182H86.6213H86.6243H86.6274H86.6304H86.6335H86.6365H86.6396H86.6427H86.6457H86.6488H86.6518H86.6549H86.6579H86.661H86.664H86.6671H86.6701H86.6732H86.6763H86.6793H86.6824H86.6854H86.6885H86.6915H86.6946H86.6976H86.7007H86.7037H86.7068H86.7098H86.7129H86.716H86.719H86.7221H86.7251H86.7282H86.7312H86.7343H86.7373H86.7404H86.7434H86.7465H86.7495H86.7526H86.7557H86.7587H86.7618H86.7648H86.7679H86.7709H86.774H86.777H86.7801H86.7831H86.7862H86.7893H86.7923H86.7954H86.7984H86.8015H86.8045H86.8076H86.8106H86.8137H86.8167H86.8198H86.8228H86.8259H86.829H86.832H86.8351H86.8381H86.8412H86.8442H86.8473H86.8503H86.8534H86.8564H86.8595H86.8626H86.8656H86.8687H86.8717H86.8748H86.8778H86.8809H86.8839H86.887H86.89H86.8931H86.8961H86.8992H86.9023H86.9053H86.9084H86.9114H86.9145H86.9175H86.9206H86.9236H86.9267H86.9297H86.9328H86.9359H86.9389H86.942H86.945H86.9481H86.9511H86.9542H86.9572H86.9603H86.9633H86.9664H86.9694H86.9725H86.9756H86.9786H86.9817H86.9847H86.9878H86.9908H86.9939H86.9969H87H87.003H87.0061H87.0091H87.0122H87.0153H87.0183H87.0214H87.0244H87.0275H87.0305H87.0336H87.0366H87.0397H87.0427H87.0458H87.0489H87.0519H87.055H87.058H87.0611H87.0641H87.0672H87.0702H87.0733H87.0763H87.0794H87.0824H87.0855H87.0886H87.0916H87.0947H87.0977H87.1008H87.1038H87.1069H87.1099H87.113H87.116H87.1191H87.1222H87.1252H87.1283H87.1313H87.1344H87.1374H87.1405H87.1435H87.1466H87.1496H87.1527H87.1557H87.1588H87.1619H87.1649H87.168H87.171H87.1741H87.1771H87.1802H87.1832H87.1863H87.1893H87.1924H87.1954H87.1985H87.2016H87.2046H87.2077H87.2107H87.2138H87.2168H87.2199H87.2229H87.226H87.229H87.2321H87.2352H87.2382H87.2413H87.2443H87.2474H87.2504H87.2535H87.2565H87.2596H87.2626H87.2657H87.2687H87.2718H87.2749H87.2779H87.281H87.284H87.2871H87.2901H87.2932H87.2962H87.2993H87.3023H87.3054H87.3085H87.3115H87.3146H87.3176H87.3207H87.3237H87.3268H87.3298H87.3329H87.3359H87.339H87.342H87.3451H87.3482H87.3512H87.3543H87.3573H87.3604H87.3634H87.3665H87.3695H87.3726H87.3756H87.3787H87.3817H87.3848H87.3879H87.3909H87.394H87.397H87.4001H87.4031H87.4062H87.4092H87.4123H87.4153H87.4184H87.4215H87.4245H87.4276H87.4306H87.4337H87.4367H87.4398H87.4428H87.4459H87.4489H87.452H87.455H87.4581H87.4612H87.4642H87.4673H87.4703H87.4734H87.4764H87.4795H87.4825H87.4856H87.4886H87.4917H87.4948H87.4978H87.5009H87.5039H87.507H87.51H87.5131H87.5161H87.5192H87.5222H87.5253H87.5283H87.5314H87.5345H87.5375H87.5406H87.5436H87.5449L81.2161 49.9051L70.7786 44.3268C75.1289 40.5893 80.703 38.5045 86.4911 38.4608H86.493ZM88.7712 75.0478L99.1932 80.6275C96.9069 82.6237 94.2515 84.172 91.37 85.1872C88.4945 86.2003 85.4497 86.6627 82.3999 86.5511L88.7712 75.0478Z" fill="black" stroke="black" stroke-width="0.6"/>
<path d="M111.877 35.7005L111.875 35.6985C106.9 30.2779 100.263 26.6682 93.0087 25.4389L93.0087 25.4389L93.0056 25.4384C87.0452 24.4922 80.9433 25.0326 75.242 27.0116C69.5415 28.9904 64.4178 32.346 60.3257 36.7806C55.3529 41.9831 51.8554 48.4161 50.1928 55.4183C48.6956 61.2655 48.6658 67.3919 50.1059 73.2534C51.5462 79.1158 54.4124 84.5316 58.4497 89.0196L58.4503 89.0202C58.8146 89.4228 59.2115 89.824 59.6396 90.2377L51.2564 105.621L50.2859 105.102C49.8069 104.844 49.2454 104.786 48.7236 104.94C48.2018 105.094 47.7617 105.447 47.499 105.923L47.4981 105.925L36.9699 125.28L36.9694 125.281C35.8172 127.416 35.3235 129.845 35.5509 132.26C35.7782 134.676 36.7164 136.97 38.2468 138.852C39.7772 140.735 41.8312 142.122 44.1494 142.838C46.4675 143.554 48.9456 143.567 51.271 142.875C52.8092 142.427 54.2432 141.677 55.4896 140.67C56.7363 139.663 57.7706 138.419 58.5325 137.009L69.0603 117.676L69.061 117.674C69.3188 117.195 69.3771 116.634 69.2233 116.112C69.0696 115.59 68.7162 115.15 68.2399 114.887L68.2363 114.886L67.2691 114.369L75.6329 98.9624L77.2869 99.3008L77.2868 99.301L77.2999 99.3031C83.2636 100.251 89.3691 99.7115 95.0742 97.7325C100.778 95.7539 105.905 92.3975 110.001 87.9613C112.476 85.3962 114.6 82.5149 116.32 79.3925L116.32 79.391C118.029 76.2473 119.311 72.8903 120.134 69.4085C121.65 63.5456 121.689 57.3985 120.249 51.5167C118.808 45.6338 115.932 40.1998 111.877 35.7005ZM54.9212 135.021L54.9208 135.021C54.4166 135.952 53.733 136.774 52.9096 137.439C52.0866 138.103 51.1402 138.599 50.1249 138.896C48.5843 139.331 46.9499 139.307 45.423 138.825C43.8958 138.344 42.5428 137.426 41.5308 136.185C40.5188 134.944 39.8919 133.434 39.7274 131.841C39.563 130.249 39.8676 128.644 40.6037 127.223C40.6041 127.222 40.6046 127.221 40.605 127.22L50.1367 109.686L64.4971 117.461L54.9212 135.021ZM116.128 68.3262L116.127 68.3313C114.633 74.6256 111.487 80.4075 107.013 85.0808L107.013 85.0807L107.009 85.0851C103.379 89.0301 98.8304 92.0176 93.7679 93.7823C88.7058 95.5469 83.2863 96.0343 77.9906 95.2013C77.1102 95.0545 76.1854 94.8445 75.1308 94.5492L75.1272 94.5482C74.6822 94.4296 74.2103 94.463 73.7864 94.6434C73.3626 94.8237 73.0112 95.1406 72.7882 95.5435L72.7872 95.5453L63.6574 112.297L54.8897 107.522L64.0195 90.7704L64.0209 90.7677C64.2354 90.3645 64.3103 89.9016 64.2337 89.4514C64.1572 89.0012 63.9336 88.589 63.5978 88.2794L63.5979 88.2793L63.5948 88.2766C62.7725 87.5386 62.1006 86.8664 61.4929 86.1749L61.4909 86.1727C57.917 82.1849 55.3818 77.3772 54.1099 72.1755C52.8379 66.9738 52.8686 61.5387 54.199 56.3517L54.1991 56.3517L54.2003 56.3465C55.6952 50.0525 58.8409 44.2708 63.3134 39.5968L63.3135 39.5969L63.3174 39.5927C66.949 35.6491 71.4976 32.6627 76.5599 30.898C81.6214 29.1337 87.0401 28.6453 92.3355 29.4763C98.6693 30.5698 104.459 33.739 108.794 38.4847C112.379 42.4707 114.923 47.2799 116.203 52.4855C117.482 57.6914 117.456 63.1326 116.128 68.3262Z" fill="black" stroke="black" stroke-width="0.6"/>
<path d="M58.6753 21.5885V21.588C58.6753 18.6303 57.7982 15.739 56.155 13.2798C54.5118 10.8206 52.1762 8.9038 49.4437 7.77194C46.7111 6.64007 43.7043 6.34393 40.8034 6.92095C37.9025 7.49797 35.2379 8.92224 33.1465 11.0137C31.0551 13.1051 29.6308 15.7697 29.0538 18.6706C28.4767 21.5714 28.7729 24.5783 29.9048 27.3109C31.0366 30.0434 32.9534 32.379 35.4126 34.0222C37.8719 35.6654 40.7631 36.5425 43.7208 36.5425L43.7213 36.5425C47.6856 36.5367 51.4858 34.9594 54.289 32.1562C57.0922 29.353 58.6695 25.5528 58.6753 21.5885ZM32.8758 21.588C32.8758 19.4431 33.5119 17.3463 34.7035 15.5629C35.8952 13.7794 37.589 12.3894 39.5706 11.5685C41.5523 10.7477 43.7329 10.5329 45.8366 10.9514C47.9403 11.3698 49.8727 12.4027 51.3894 13.9194C52.9062 15.4361 53.939 17.3685 54.3575 19.4723C54.776 21.576 54.5612 23.7566 53.7404 25.7382C52.9195 27.7199 51.5295 29.4137 49.746 30.6053C47.9626 31.797 45.8658 32.4331 43.7208 32.4331C40.8446 32.4331 38.0861 31.2905 36.0523 29.2566C34.0184 27.2228 32.8758 24.4643 32.8758 21.588Z" fill="black" stroke="black" stroke-width="0.6"/>
</svg>
