<svg width="150" height="150" viewBox="0 0 150 150" fill="none" xmlns="http://www.w3.org/2000/svg">
<path d="M33.234 17.6914H22.107C18.1245 17.6929 14.898 20.9194 14.8965 24.9019C14.898 28.8844 18.1245 32.1109 22.107 32.1109H33.234C37.2165 32.1094 40.443 28.8829 40.443 24.9019C40.4415 20.9179 37.2165 17.6914 33.234 17.6914ZM33.234 28.8184H22.107C19.944 28.8139 18.1935 27.0634 18.189 24.9004C18.1935 22.7374 19.944 20.9869 22.107 20.9824H33.234C35.397 20.9869 37.1475 22.7374 37.152 24.9004C37.1475 27.0634 35.3955 28.8139 33.234 28.8184Z" fill="black"/>
<path d="M58.7945 33.2773C54.812 33.2788 51.5855 36.5053 51.584 40.4878C51.5855 44.4703 54.812 47.6968 58.7945 47.6968C62.777 47.6953 66.0035 44.4688 66.0035 40.4878C66.0035 36.5053 62.777 33.2788 58.7945 33.2773ZM58.7945 44.4058C56.6315 44.4013 54.881 42.6508 54.8765 40.4878C54.881 38.3248 56.6315 36.5743 58.7945 36.5698C60.9575 36.5743 62.708 38.3248 62.711 40.4878C62.708 42.6508 60.9575 44.4013 58.7945 44.4058Z" fill="black"/>
<path d="M142.164 92.6545C139.149 88.648 134.691 85.702 129.147 85.711C128.604 85.711 128.051 85.738 127.488 85.7965L127.445 85.801L127.395 85.8085C123.746 86.3785 120.468 88.3735 118.299 91.8655C116.12 95.35 114.963 100.196 114.959 106.652V134.867C114.96 137.536 117.12 139.696 119.789 139.697C122.457 139.696 124.617 137.536 124.619 134.867V111.37C126.201 111.962 127.86 112.282 129.521 112.282C134.498 112.282 139.494 109.72 142.271 104.999L142.499 104.614V93.0955L142.164 92.6545ZM129.522 108.989C127.529 108.988 125.567 108.46 123.861 107.368L121.328 105.749V134.867C121.326 135.715 120.639 136.403 119.79 136.405C118.941 136.403 118.254 135.716 118.253 134.867V106.652C118.25 100.583 119.369 96.346 121.089 93.616C122.813 90.907 125.048 89.5585 127.875 89.0695C128.307 89.026 128.732 89.0035 129.149 89.0035C133.308 89.0125 136.634 91.054 139.206 94.2415V103.664C137.027 107.099 133.26 108.989 129.522 108.989Z" fill="black"/>
<path d="M104.724 88.4943V34.7178C104.723 29.8428 100.764 25.8888 95.8725 25.8873H76.098V20.1543C76.0965 14.7153 71.685 10.3038 66.2445 10.3008H17.3535C11.913 10.3023 7.5015 14.7153 7.5 20.1543V129.848C7.5015 135.287 11.913 139.698 17.3535 139.701H53.0325H66.246H95.874C98.259 139.698 100.409 138.74 102 137.207C102.825 138.686 104.387 139.697 106.202 139.698C108.87 139.697 111.03 137.537 111.032 134.868V106.653C111.029 100.197 109.872 95.3508 107.691 91.8663C106.854 90.5193 105.849 89.4003 104.724 88.4943ZM12.7155 134.484C11.5245 133.292 10.7925 131.66 10.7925 129.848V20.1543C10.794 18.3408 11.5245 16.7103 12.7155 15.5163C13.9095 14.3253 15.54 13.5933 17.3535 13.5933H66.246C68.0595 13.5948 69.69 14.3253 70.8825 15.5163C72.0735 16.7103 72.8055 18.3408 72.8055 20.1543V25.8873H53.0325C48.141 25.8888 44.1825 29.8428 44.181 34.7178V130.871C44.1825 132.98 44.9535 134.889 46.1895 136.409H17.3535C15.54 136.406 13.9095 135.675 12.7155 134.484ZM95.8725 136.407H66.246H53.0325C49.956 136.401 47.4795 133.919 47.4735 130.869V34.7178C47.4795 31.6683 49.956 29.1858 53.0325 29.1798H74.4525H95.8725C98.949 29.1858 101.426 31.6683 101.432 34.7178V86.5848C100.521 86.2263 99.573 85.9623 98.5935 85.8093L98.544 85.8018L98.499 85.7973C97.935 85.7388 97.3815 85.7118 96.84 85.7118C91.296 85.7028 86.8395 88.6488 83.8245 92.6553L83.49 93.0963V104.615L83.718 105C86.493 109.721 91.491 112.283 96.468 112.283C98.13 112.283 99.7875 111.963 101.372 111.371V131.586C101.042 134.282 98.6985 136.412 95.8725 136.407ZM107.737 134.867C107.736 135.716 107.049 136.403 106.2 136.404C105.351 136.403 104.664 135.716 104.663 134.867V105.749L102.129 107.369C100.422 108.459 98.46 108.989 96.4665 108.99C92.727 108.99 88.9605 107.1 86.7825 103.665V94.2423C89.355 91.0548 92.6805 89.0118 96.84 89.0043C97.2555 89.0043 97.68 89.0268 98.1135 89.0703C100.942 89.5593 103.177 90.9078 104.899 93.6168C106.62 96.3468 107.739 100.583 107.736 106.653L107.737 134.867Z" fill="black"/>
</svg>
