<svg width="150" height="150" viewBox="0 0 150 150" fill="none" xmlns="http://www.w3.org/2000/svg">
<path d="M97.7098 50.5792C94.8235 47.4158 90.9652 45.3046 86.7448 44.5792C83.2821 44.0304 79.7374 44.3442 76.4249 45.4928C73.1124 46.6415 70.1344 48.5895 67.7548 51.1642C66.3181 52.6701 65.0874 54.3598 64.0948 56.1892C63.7348 56.8492 63.4348 57.5092 63.1348 58.1992C62.6021 59.4254 62.1755 60.6951 61.8598 61.9942C60.9974 65.3888 60.9842 68.9435 61.8214 72.3444C62.6585 75.7453 64.3203 78.8878 66.6598 81.4942C69.5462 84.6576 73.4044 86.7688 77.6248 87.4942C78.7446 87.686 79.8787 87.7814 81.0148 87.7792C83.938 87.7603 86.8272 87.1498 89.5082 85.9846C92.1892 84.8194 94.6066 83.1235 96.6148 80.9992C98.0514 79.4932 99.2821 77.8035 100.275 75.9742C100.525 75.5142 100.76 75.0492 100.98 74.5792C101.624 73.1624 102.127 71.6852 102.48 70.1692C103.362 66.7637 103.388 63.193 102.556 59.775C101.723 56.357 100.059 53.198 97.7098 50.5792ZM100.38 67.9042L91.7848 63.2242L97.0048 53.6392C98.4902 55.6715 99.5528 57.9811 100.13 60.4313C100.707 62.8815 100.787 65.4226 100.365 67.9042H100.38ZM77.1748 84.8992H77.0098C76.3588 84.7486 75.7176 84.5582 75.0898 84.3292L74.7448 84.1942C73.4284 83.6967 72.1867 83.0204 71.0548 82.1842L70.7398 81.9592C70.2139 81.5549 69.7129 81.1191 69.2398 80.6542L69.1198 80.5342L74.7748 70.1242L82.8598 74.5192L77.1748 84.8992ZM75.9448 67.9192L80.3398 59.8342L88.4248 64.2292L83.9998 72.3142L75.9448 67.9192ZM81.5248 57.6592L87.1798 47.2492H87.3448C87.9958 47.4001 88.6369 47.5905 89.2648 47.8192L89.6098 47.9542C90.926 48.4522 92.1676 49.1285 93.2998 49.9642L93.6148 50.1892C94.1408 50.5934 94.6417 51.0292 95.1148 51.4942L95.2348 51.6142L89.5798 62.0242L81.5248 57.6592ZM83.3398 46.8142C83.7448 46.8142 84.1498 46.8142 84.5548 46.8142L79.3348 56.4142L70.7248 51.7342C74.1832 48.601 78.6734 46.8498 83.3398 46.8142ZM67.6348 55.2292C67.7998 55.0042 67.9648 54.7942 68.1448 54.5842C68.3248 54.3742 68.6698 53.9392 68.9398 53.6392L78.1498 58.6492L73.7548 66.7342L64.4998 61.7092V61.5592C64.6898 60.9192 64.9048 60.2942 65.1448 59.6842L65.2948 59.3242C65.5648 58.6792 65.8498 58.0492 66.1948 57.4342C66.6286 56.67 67.1095 55.9336 67.6348 55.2292ZM63.9748 64.2292L72.5698 68.9092L67.3498 78.5092C65.8619 76.478 64.7965 74.1689 64.2168 71.7187C63.6371 69.2684 63.5548 66.7268 63.9748 64.2442V64.2292ZM79.7998 85.2292L85.0198 75.6442L93.6148 80.3242C91.7603 82.0315 89.5821 83.3493 87.2091 84.1996C84.8361 85.0498 82.3166 85.4153 79.7998 85.2742V85.2292ZM96.7048 76.8742C96.5548 77.0992 96.3748 77.2942 96.2098 77.5192C96.0448 77.7442 95.6848 78.1642 95.4148 78.4792L86.1898 73.4992L90.5848 65.4142L99.8398 70.4992V70.6492C99.6498 71.2892 99.4298 71.9192 99.1798 72.5392L99.0298 72.8992C98.7598 73.5442 98.4748 74.1742 98.1298 74.7742C97.6986 75.5173 97.2228 76.2337 96.7048 76.9192V76.8742Z" fill="black"/>
<path d="M100.859 47.4304C97.3829 43.6422 92.7439 41.1195 87.6744 40.2604C83.5053 39.5986 79.2372 39.9766 75.2493 41.3608C71.2613 42.7451 67.6769 45.0928 64.8144 48.1954C61.3322 51.8379 58.8832 56.3424 57.7194 61.2454C56.6718 65.3358 56.6507 69.6218 57.6582 73.7224C58.6657 77.8229 60.6705 81.6111 63.4944 84.7504C63.7794 85.0654 64.0944 85.3804 64.4394 85.7104L58.3494 96.8854L57.4794 96.4204C57.1907 96.265 56.8522 96.2298 56.5377 96.3225C56.2231 96.4152 55.9578 96.6282 55.7994 96.9154L48.3744 110.565C47.5817 112.034 47.2421 113.705 47.3985 115.367C47.5549 117.029 48.2004 118.608 49.2533 119.903C50.3062 121.198 51.7194 122.152 53.3144 122.645C54.9093 123.138 56.6145 123.146 58.2144 122.67C59.2727 122.362 60.2592 121.846 61.1166 121.154C61.9741 120.461 62.6854 119.605 63.2094 118.635L70.6344 105C70.7898 104.712 70.825 104.373 70.7323 104.059C70.6396 103.744 70.4266 103.479 70.1394 103.32L69.2694 102.855L75.3444 91.6654L76.6644 91.9354C80.8359 92.5984 85.1066 92.221 89.0971 90.8368C93.0877 89.4525 96.6746 87.1042 99.5394 84.0004C101.273 82.2043 102.761 80.1868 103.964 78.0004C105.16 75.7991 106.058 73.4485 106.634 71.0104C107.695 66.9088 107.723 62.6083 106.715 58.4934C105.707 54.3785 103.696 50.5775 100.859 47.4304ZM61.0344 117.435C60.6655 118.116 60.1654 118.717 59.563 119.204C58.9605 119.69 58.2677 120.053 57.5244 120.27C56.398 120.589 55.203 120.571 54.0865 120.219C52.9701 119.867 51.981 119.196 51.2412 118.289C50.5014 117.382 50.0431 116.278 49.9229 115.113C49.8026 113.949 50.0256 112.775 50.5644 111.735L57.3894 99.1804L67.8894 104.865L61.0344 117.435ZM104.219 70.3504C103.157 74.826 100.92 78.9374 97.7395 82.2604C95.1555 85.0682 91.9181 87.1946 88.3149 88.4506C84.7116 89.7066 80.854 90.0535 77.0844 89.4604C76.4544 89.3554 75.7944 89.2054 75.0444 88.9954C74.7762 88.9238 74.4917 88.944 74.2362 89.0527C73.9807 89.1615 73.7689 89.3525 73.6344 89.5954L67.0944 101.595L60.5394 98.0254L67.0794 86.0254C67.2088 85.7823 67.2539 85.5033 67.2077 85.2319C67.1616 84.9605 67.0268 84.712 66.8244 84.5254C66.2394 84.0004 65.7594 83.5204 65.3244 83.0254C62.7807 80.1871 60.9763 76.7652 60.071 73.0629C59.1657 69.3606 59.1875 65.4922 60.1344 61.8004C61.1974 57.325 63.4342 53.2138 66.6144 49.8904C69.1992 47.0836 72.4367 44.958 76.0397 43.702C79.6427 42.4461 83.5 42.0986 87.2694 42.6904C91.7835 43.4694 95.9102 45.728 98.9994 49.1104C101.551 51.9474 103.362 55.3705 104.273 59.0758C105.183 62.7811 105.165 66.6539 104.219 70.3504Z" fill="black"/>
<path d="M63.2852 37.335C63.2852 35.2909 62.6791 33.2928 61.5435 31.5932C60.4079 29.8936 58.7937 28.5689 56.9053 27.7867C55.0168 27.0045 52.9388 26.7998 50.934 27.1986C48.9292 27.5974 47.0877 28.5817 45.6423 30.0271C44.1969 31.4724 43.2126 33.314 42.8138 35.3187C42.415 37.3235 42.6197 39.4016 43.4019 41.29C44.1842 43.1785 45.5088 44.7926 47.2084 45.9282C48.908 47.0639 50.9062 47.67 52.9502 47.67C55.69 47.666 58.3165 46.5759 60.2538 44.6386C62.1911 42.7012 63.2813 40.0748 63.2852 37.335ZM45.0902 37.335C45.0902 35.7804 45.5512 34.2608 46.4149 32.9682C47.2786 31.6757 48.5061 30.6682 49.9423 30.0733C51.3786 29.4784 52.959 29.3228 54.4836 29.626C56.0083 29.9293 57.4089 30.6779 58.5081 31.7771C59.6073 32.8764 60.3559 34.2769 60.6592 35.8016C60.9625 37.3263 60.8068 38.9067 60.2119 40.3429C59.617 41.7791 58.6096 43.0067 57.317 43.8704C56.0245 44.734 54.5048 45.195 52.9502 45.195C50.8656 45.195 48.8664 44.3669 47.3924 42.8929C45.9183 41.4188 45.0902 39.4196 45.0902 37.335Z" fill="black"/>
</svg>
