<svg width="150" height="150" viewBox="0 0 150 150" fill="none" xmlns="http://www.w3.org/2000/svg">
<path d="M107.122 40.661L107.124 40.6626C110.372 44.2233 112.674 48.5191 113.825 53.1673C114.976 57.8144 114.94 62.6694 113.721 67.2996C113.233 69.3585 112.539 71.3647 111.649 73.2889L111.648 73.2913C111.344 73.9295 111.02 74.5608 110.674 75.1853M107.122 40.661L110.456 75.0644M107.122 40.661C103.127 36.356 97.7877 33.4834 91.9477 32.4964L91.9477 32.4964L91.9446 32.4959C87.1573 31.7498 82.2566 32.1764 77.6769 33.7379C73.0978 35.2992 68.9806 37.9469 65.6902 41.447M107.122 40.661L65.6902 41.447M110.674 75.1853L110.456 75.0644M110.674 75.1853C110.674 75.1853 110.674 75.1852 110.674 75.1852L110.456 75.0644M110.674 75.1853C109.303 77.6705 107.602 79.966 105.618 82.0119M110.456 75.0644C109.095 77.5303 107.407 79.8081 105.438 81.8382M105.618 82.0119C105.618 82.0118 105.618 82.0116 105.618 82.0115L105.438 81.8382M105.618 82.0119C102.841 84.8997 99.499 87.2048 95.7929 88.7886C92.0866 90.3724 88.0927 91.2022 84.0519 91.2279L84.0508 91.2279C82.4792 91.2309 80.9102 91.1012 79.3611 90.8402L79.361 90.8402C73.5211 89.8532 68.1815 86.9806 64.1865 82.6756L64.1851 82.6741C60.9499 79.1301 58.6516 74.857 57.4938 70.232C56.336 65.6074 56.3542 60.7737 57.5466 56.1576M105.618 82.0119C105.617 82.012 105.617 82.0122 105.617 82.0123L105.438 81.8382M105.438 81.8382L57.5466 56.1576M57.5466 56.1576C57.5465 56.158 57.5464 56.1585 57.5463 56.1589L57.789 56.2189M57.5466 56.1576L84.0503 90.9779C82.4928 90.9809 80.9378 90.8523 79.4026 90.5937C73.6165 89.6158 68.3269 86.7698 64.3697 82.5055C61.1622 78.992 58.884 74.7558 57.7363 70.1713C56.5886 65.5868 56.6067 60.7949 57.789 56.2189M57.5466 56.1576C57.9829 54.3927 58.5723 52.6679 59.3083 51.0021L59.3083 51.002C59.7205 50.07 60.1354 49.1721 60.6344 48.2725C62.0057 45.7876 63.7057 43.4925 65.6902 41.447M57.5466 56.1576C57.5467 56.1572 57.5468 56.1568 57.5469 56.1563L57.789 56.2189M57.789 56.2189C58.2219 54.4676 58.8067 52.7561 59.537 51.1031M59.537 51.1031C59.9483 50.173 60.3596 49.2833 60.8531 48.3936C62.214 45.9275 63.9013 43.6497 65.871 41.6197C69.1334 38.1489 73.2162 35.5229 77.7576 33.9745C82.299 32.4261 87.1587 32.0031 91.9061 32.7429L59.537 51.1031ZM59.537 51.1031L65.6902 41.447M110.014 54.1703C110.769 57.3243 110.897 60.591 110.391 63.7905L99.1574 57.7763L106.002 45.4194C107.898 48.0549 109.261 51.026 110.014 54.1703ZM75.544 85.9118L75.5413 85.9108C73.7577 85.2481 72.0755 84.3472 70.5422 83.2334L70.5422 83.2333L70.5389 83.2311L70.1107 82.9303C69.3992 82.3924 68.7216 81.8126 68.0815 81.1942C68.0812 81.1939 68.0809 81.1936 68.0806 81.1934L68.053 81.1662L75.5949 67.5151L86.2376 73.2035L78.6388 86.8455H78.5876C77.7152 86.646 76.8558 86.3946 76.0143 86.0928L75.544 85.9118ZM95.7442 37.5259L95.7468 37.5268C97.5301 38.1902 99.2122 39.0912 100.746 40.2044L100.746 40.2044L100.749 40.2066L101.178 40.5075C101.889 41.0454 102.567 41.6252 103.207 42.2437C103.207 42.2439 103.207 42.2441 103.208 42.2443L103.235 42.2715L95.6931 55.9229L85.0911 50.2739L92.65 36.5921H92.7005C93.5728 36.7922 94.4322 37.0436 95.2739 37.3449L95.7442 37.5259ZM65.9056 47.2505L65.9069 47.2489C66.1298 46.95 66.352 46.672 66.5941 46.3942C66.6891 46.2852 66.8101 46.1406 66.9434 45.9813C67.1337 45.7538 67.3492 45.4961 67.5504 45.2689L79.781 51.8106L73.9973 62.272L61.6584 55.6848V55.6695C61.9139 54.8267 62.2024 54.0036 62.5239 53.2001L62.7284 52.7176C62.7284 52.7175 62.7284 52.7174 62.7284 52.7173C63.0968 51.852 63.4832 51.013 63.9491 50.1962C64.5385 49.1754 65.1919 48.1916 65.9056 47.2505ZM60.8814 59.6185L72.1309 65.6413L65.2862 78.0185C63.3863 75.3843 62.0201 72.4138 61.2634 69.2693C60.5022 66.1059 60.3729 62.8284 60.8814 59.6185ZM103.734 78.1273L91.487 71.6264L97.2697 61.1668L109.609 67.833V67.8491C109.354 68.6915 109.058 69.521 108.724 70.3376C108.723 70.3381 108.723 70.3385 108.723 70.339L108.519 70.8212C108.15 71.6868 107.764 72.5247 107.299 73.3198C106.84 74.0982 106.343 74.8546 105.811 75.5864V75.4634L105.354 76.1373C105.258 76.279 105.151 76.4132 105.036 76.5541C105.018 76.5762 105 76.5985 104.981 76.621C104.884 76.74 104.781 76.8653 104.682 76.9976C104.488 77.2581 104.084 77.7257 103.734 78.1273ZM88.044 69.7939L77.4407 64.1054L83.2244 53.6438L93.8672 59.3323L88.044 69.7939ZM87.2388 36.0058H87.2411H87.2444H87.2476H87.2509H87.2541H87.2574H87.2606H87.2639H87.2671H87.2704H87.2736H87.2769H87.2802H87.2834H87.2867H87.2899H87.2932H87.2964H87.2997H87.3029H87.3062H87.3094H87.3127H87.3159H87.3192H87.3224H87.3257H87.329H87.3322H87.3355H87.3387H87.342H87.3452H87.3485H87.3517H87.355H87.3582H87.3615H87.3647H87.368H87.3712H87.3745H87.3778H87.381H87.3843H87.3875H87.3908H87.394H87.3973H87.4005H87.4038H87.407H87.4103H87.4135H87.4168H87.42H87.4233H87.4266H87.4298H87.4331H87.4363H87.4396H87.4428H87.4461H87.4493H87.4526H87.4558H87.4591H87.4623H87.4656H87.4689H87.4721H87.4754H87.4786H87.4819H87.4851H87.4884H87.4916H87.4949H87.4981H87.5014H87.5046H87.5079H87.5111H87.5144H87.5177H87.5209H87.5242H87.5274H87.5307H87.5339H87.5372H87.5404H87.5437H87.5469H87.5502H87.5534H87.5567H87.5599H87.5632H87.5665H87.5697H87.573H87.5762H87.5795H87.5827H87.586H87.5892H87.5925H87.5957H87.599H87.6022H87.6055H87.6087H87.612H87.6153H87.6185H87.6218H87.625H87.6283H87.6315H87.6348H87.638H87.6413H87.6445H87.6478H87.651H87.6543H87.6575H87.6608H87.6641H87.6673H87.6706H87.6738H87.6771H87.6803H87.6836H87.6868H87.6901H87.6933H87.6966H87.6998H87.7031H87.7064H87.7096H87.7129H87.7161H87.7194H87.7226H87.7259H87.7291H87.7324H87.7356H87.7389H87.7421H87.7454H87.7486H87.7519H87.7551H87.7584H87.7617H87.7649H87.7682H87.7714H87.7747H87.7779H87.7812H87.7844H87.7877H87.7909H87.7942H87.7974H87.8007H87.804H87.8072H87.8105H87.8137H87.817H87.8202H87.8235H87.8267H87.83H87.8332H87.8365H87.8397H87.843H87.8462H87.8495H87.8528H87.856H87.8593H87.8625H87.8658H87.869H87.8723H87.8755H87.8788H87.882H87.8853H87.8885H87.8918H87.895H87.8983H87.9016H87.9048H87.9081H87.9113H87.9146H87.9178H87.9211H87.9243H87.9276H87.9308H87.9341H87.9373H87.9406H87.9438H87.9471H87.9504H87.9536H87.9569H87.9601H87.9634H87.9666H87.9699H87.9731H87.9764H87.9796H87.9829H87.9861H87.9894H87.9926H87.9959H87.9992H88.0024H88.0057H88.0089H88.0122H88.0154H88.0187H88.0219H88.0252H88.0284H88.0317H88.0349H88.0382H88.0415H88.0447H88.048H88.0512H88.0545H88.0577H88.061H88.0642H88.0675H88.0707H88.074H88.0772H88.0805H88.0837H88.087H88.0903H88.0935H88.0968H88.1H88.1033H88.1065H88.1098H88.113H88.1163H88.1195H88.1228H88.126H88.1293H88.1325H88.1358H88.1391H88.1423H88.1456H88.1488H88.1521H88.1553H88.1586H88.1618H88.1651H88.1683H88.1716H88.1748H88.1781H88.1813H88.1846H88.1879H88.1911H88.1944H88.1976H88.2009H88.2041H88.2074H88.2106H88.2139H88.2171H88.2204H88.2236H88.2269H88.2301H88.2334H88.2367H88.2399H88.2432H88.2464H88.2497H88.2529H88.2562H88.2594H88.2627H88.2659H88.2692H88.2724H88.2757H88.2789H88.2822H88.2855H88.2887H88.292H88.2952H88.2985H88.3017H88.305H88.3082H88.3115H88.3147H88.318H88.3212H88.3245H88.3278H88.331H88.3343H88.3375H88.3408H88.344H88.3473H88.3505H88.3538H88.357H88.3603H88.3635H88.3668H88.37H88.3733H88.3766H88.3798H88.3831H88.3863H88.3896H88.3928H88.3961H88.3993H88.4026H88.4058H88.4091H88.4123H88.4156H88.4188H88.4221H88.4254H88.4286H88.4319H88.4351H88.4384H88.4416H88.4449H88.4481H88.4514H88.4546H88.4579H88.4611H88.4644H88.4676H88.4709H88.4742H88.4774H88.4797L81.6475 48.3602L70.379 42.3377C75.0369 38.3038 81.0224 36.0526 87.2388 36.0058ZM82.7652 87.3691L89.6404 74.9562L100.892 80.9799C98.4323 83.1443 95.5692 84.8211 92.4595 85.9167C89.3526 87.0113 86.0606 87.5041 82.7652 87.3691Z" fill="black" stroke="black" stroke-width="0.5"/>
<path d="M114.228 33.179L114.23 33.1806C118.541 37.965 121.6 43.7434 123.132 49.999C124.664 56.2537 124.622 62.7905 123.01 69.025C122.134 72.7284 120.77 76.2989 118.954 79.6426L118.953 79.6439C117.124 82.9649 114.865 86.0294 112.232 88.7576C107.877 93.4752 102.425 97.0445 96.3592 99.1486C90.2927 101.253 83.8003 101.827 77.4588 100.819L77.4479 100.817L77.4479 100.817L75.6355 100.446L66.6678 116.964L67.76 117.548L67.7629 117.55C68.2543 117.821 68.6188 118.275 68.7774 118.813C68.936 119.351 68.8759 119.93 68.61 120.425L68.6094 120.426L57.3945 141.02C57.3944 141.02 57.3944 141.021 57.3943 141.021C56.5871 142.514 55.4913 143.833 54.1705 144.9C52.8497 145.967 51.3302 146.761 49.7001 147.236C47.2363 147.969 44.6105 147.955 42.1545 147.197C39.6981 146.438 37.5217 144.969 35.9001 142.974C34.2785 140.979 33.2845 138.548 33.0436 135.989C32.8027 133.429 33.3257 130.856 34.5466 128.593L34.547 128.592L45.7623 107.974L45.763 107.973C46.0341 107.482 46.4881 107.117 47.0263 106.959C47.5644 106.8 48.1433 106.86 48.6373 107.126L114.228 33.179ZM114.228 33.179C108.939 27.4161 101.882 23.5784 94.1701 22.2714L94.1701 22.2714L94.1675 22.271C87.8295 21.2649 81.341 21.8395 75.2784 23.9439C69.2165 26.0481 63.768 29.6165 59.4166 34.3324C54.1274 39.8656 50.4075 46.7078 48.6393 54.1553C47.0471 60.3732 47.0153 66.888 48.5467 73.1211C50.0783 79.3549 53.1261 85.1138 57.4192 89.8862L57.4196 89.8867C57.8171 90.326 58.2515 90.764 58.7215 91.2171L49.7328 107.711L48.638 107.126L114.228 33.179ZM53.6698 138.969L53.6694 138.97C53.1279 139.969 52.3938 140.852 51.5095 141.566C50.6254 142.28 49.6087 142.812 48.5179 143.131C46.8638 143.599 45.1091 143.572 43.4698 143.055C41.8299 142.538 40.3772 141.553 39.2905 140.22C38.2039 138.887 37.5308 137.266 37.3542 135.556C37.1776 133.846 37.5048 132.122 38.2954 130.596C38.2958 130.596 38.2961 130.595 38.2965 130.594L48.484 111.854L63.904 120.203L53.6698 138.969ZM118.877 67.9062L118.876 67.9104C117.282 74.6275 113.925 80.7978 109.151 85.785L109.147 85.7886C105.272 89.9995 100.417 93.1884 95.0134 95.072C89.6101 96.9555 83.8255 97.4758 78.1729 96.5866C77.2319 96.4298 76.244 96.2054 75.1184 95.8902L75.1154 95.8894C74.6563 95.767 74.1695 95.8016 73.7323 95.9876C73.2951 96.1736 72.9326 96.5005 72.7025 96.9162L72.7017 96.9176L62.9428 114.824L53.4808 109.671L63.2396 91.7645L63.2408 91.7623C63.4621 91.3464 63.5393 90.8689 63.4603 90.4044C63.3814 89.94 63.1507 89.5148 62.8044 89.1953L62.8019 89.1931C61.9243 88.4054 61.2064 87.6874 60.557 86.9484L60.5554 86.9466C56.7406 82.69 54.0345 77.5583 52.6768 72.006C51.3192 66.4537 51.3519 60.6523 52.772 55.1157L52.772 55.1157L52.7731 55.1113C54.3684 48.3946 57.7254 42.2245 62.4983 37.2366L62.4984 37.2366L62.5016 37.2331C66.378 33.0238 71.2332 29.8361 76.6366 27.9525C82.0394 26.0692 87.8235 25.548 93.476 26.435C100.239 27.6025 106.421 30.9863 111.049 36.0534C114.875 40.308 117.591 45.4414 118.957 50.9979C120.323 56.5546 120.295 62.3626 118.877 67.9062Z" fill="black" stroke="black" stroke-width="0.5"/>
<path d="M57.538 18.1014V18.101C57.538 14.964 56.6077 11.8975 54.8649 9.28924C53.1221 6.68095 50.645 4.64803 47.7468 3.44757C44.8487 2.24711 41.6596 1.93301 38.5829 2.545C35.5062 3.15699 32.6801 4.66759 30.4619 6.88576C28.2438 9.10392 26.7332 11.93 26.1212 15.0067C25.5092 18.0834 25.8233 21.2725 27.0237 24.1707C28.2242 27.0689 30.2571 29.546 32.8654 31.2888C35.4737 33.0316 38.5402 33.9618 41.6772 33.9618H41.6775C45.8821 33.9557 49.9127 32.2827 52.8858 29.3097C55.8589 26.3366 57.5319 22.306 57.538 18.1014ZM30.0548 18.101C30.0548 15.8023 30.7365 13.5553 32.0136 11.644C33.2906 9.7327 35.1058 8.24304 37.2295 7.36337C39.3532 6.4837 41.6901 6.25354 43.9446 6.70199C46.1991 7.15044 48.27 8.25736 49.8954 9.88278C51.5208 11.5082 52.6278 13.5791 53.0762 15.8336C53.5247 18.0881 53.2945 20.425 52.4148 22.5487C51.5352 24.6724 50.0455 26.4876 48.1342 27.7646C46.2229 29.0417 43.9759 29.7234 41.6772 29.7234C38.5947 29.7234 35.6386 28.4989 33.459 26.3193C31.2793 24.1396 30.0548 21.1835 30.0548 18.101Z" fill="black" stroke="black" stroke-width="0.5"/>
</svg>
