<svg width="150" height="150" viewBox="0 0 150 150" fill="none" xmlns="http://www.w3.org/2000/svg">
<path d="M124.8 88.1561H123.704C122.957 86.7027 122.026 85.3515 120.933 84.1361V53.4506C120.933 41.2684 116.094 29.5851 107.48 20.971C98.8657 12.3569 87.1824 7.51758 75.0002 7.51758C62.818 7.51758 51.1348 12.3569 42.5207 20.971C33.9066 29.5851 29.0672 41.2684 29.0672 53.4506V84.1361C27.9749 85.3515 27.0438 86.7027 26.2967 88.1561H25.2002C22.9172 88.1861 20.7378 89.1141 19.134 90.7391C17.5301 92.3642 16.6309 94.5556 16.6309 96.8388C16.6309 99.1221 17.5301 101.313 19.134 102.939C20.7378 104.564 22.9172 105.492 25.2002 105.522H26.2967C27.0802 107.047 28.0661 108.46 29.2277 109.722V125.368C29.2329 128.464 30.4652 131.432 32.6546 133.622C34.844 135.811 37.812 137.043 40.9082 137.049H63.1082C63.4734 138.594 64.3491 139.972 65.5938 140.958C66.8385 141.944 68.3795 142.482 69.9677 142.485H80.0357C81.9055 142.485 83.6987 141.742 85.0208 140.42C86.343 139.098 87.0857 137.304 87.0857 135.435C87.0857 133.565 86.343 131.772 85.0208 130.449C83.6987 129.127 81.9055 128.385 80.0357 128.385H69.9662C68.3776 128.385 66.8358 128.923 65.5908 129.909C64.3457 130.896 63.4704 132.274 63.1067 133.821H40.9067C38.6653 133.818 36.5164 132.927 34.9315 131.342C33.3466 129.757 32.4551 127.608 32.4527 125.367V112.527C35.1394 114.382 38.2619 115.507 41.5142 115.792C41.7133 118.019 42.7637 120.083 44.4465 121.554C46.1294 123.026 48.315 123.792 50.5484 123.692C52.7817 123.593 54.8906 122.635 56.4358 121.02C57.981 119.404 58.8435 117.255 58.8437 115.02V78.6596C58.8439 76.4239 57.9817 74.2743 56.4366 72.6585C54.8915 71.0427 52.7826 70.0852 50.5491 69.9854C48.3157 69.8857 46.1298 70.6514 44.4468 72.123C42.7638 73.5946 41.7133 75.6588 41.5142 77.8856C41.1212 77.9216 40.7327 77.9696 40.3457 78.0281V53.4506C40.3457 44.2598 43.9967 35.4455 50.4956 28.9467C56.9944 22.4478 65.8087 18.7968 74.9995 18.7968C84.1902 18.7968 93.0045 22.4478 99.5034 28.9467C106.002 35.4455 109.653 44.2598 109.653 53.4506V78.0281C109.266 77.9691 108.876 77.9216 108.483 77.8856C108.284 75.6588 107.234 73.5946 105.551 72.123C103.868 70.6514 101.682 69.8857 99.4484 69.9854C97.2149 70.0852 95.106 71.0427 93.5609 72.6585C92.0158 74.2743 91.1535 76.4239 91.1537 78.6596V115.02C91.1539 117.255 92.0164 119.404 93.5617 121.02C95.1069 122.635 97.2158 123.593 99.4491 123.692C101.682 123.792 103.868 123.026 105.551 121.554C107.234 120.083 108.284 118.019 108.483 115.792C111.68 115.501 114.751 114.407 117.412 112.611C120.072 110.816 122.236 108.377 123.702 105.522H124.8C127.083 105.492 129.263 104.564 130.866 102.939C132.47 101.313 133.37 99.1221 133.37 96.8388C133.37 94.5556 132.47 92.3642 130.866 90.7391C129.263 89.1141 127.083 88.1861 124.8 88.1561ZM69.9662 131.613H80.0342C81.0487 131.613 82.0216 132.016 82.7389 132.733C83.4562 133.45 83.8592 134.423 83.8592 135.438C83.8592 136.452 83.4562 137.425 82.7389 138.142C82.0216 138.86 81.0487 139.263 80.0342 139.263H69.9662C68.9518 139.263 67.9789 138.86 67.2615 138.142C66.5442 137.425 66.1412 136.452 66.1412 135.438C66.1412 134.423 66.5442 133.45 67.2615 132.733C67.9789 132.016 68.9518 131.613 69.9662 131.613ZM41.4797 81.1301V112.549C37.622 112.102 34.0618 110.257 31.4732 107.362C28.8845 104.467 27.4468 100.723 27.4322 96.8396C27.4097 92.9455 28.8345 89.182 31.4302 86.2792C34.0259 83.3764 37.6074 81.5413 41.4797 81.1301ZM19.7447 96.8396C19.7472 95.4295 20.2951 94.075 21.2737 93.0598C22.2523 92.0446 23.5857 91.4473 24.9947 91.3931C23.9447 94.9482 23.9447 98.731 24.9947 102.286C23.5857 102.232 22.2523 101.635 21.2737 100.619C20.2951 99.6041 19.7472 98.2497 19.7447 96.8396ZM44.7002 78.6596C44.724 77.2282 45.3093 75.8634 46.3299 74.8595C47.3506 73.8556 48.7249 73.293 50.1565 73.293C51.5881 73.293 52.9624 73.8556 53.983 74.8595C55.0037 75.8634 55.589 77.2282 55.6127 78.6596V115.02C55.589 116.451 55.0037 117.816 53.983 118.82C52.9624 119.824 51.5881 120.386 50.1565 120.386C48.7249 120.386 47.3506 119.824 46.3299 118.82C45.3093 117.816 44.724 116.451 44.7002 115.02V78.6596ZM101.748 26.7011C96.4509 21.4183 89.7079 17.8224 82.3695 16.3669C75.0312 14.9115 67.4262 15.6616 60.5136 18.5227C53.601 21.3839 47.6905 26.2278 43.5273 32.4438C39.3642 38.6598 37.135 45.9693 37.1207 53.4506V78.8111C35.402 79.3925 33.7763 80.2191 32.2937 81.2651V53.4506C32.2937 42.1241 36.7932 31.2615 44.8022 23.2525C52.8112 15.2435 63.6738 10.7441 75.0002 10.7441C86.3267 10.7441 97.1893 15.2435 105.198 23.2525C113.207 31.2615 117.707 42.1241 117.707 53.4506V81.2651C116.224 80.2191 114.598 79.3925 112.88 78.8111V53.4506C112.885 48.4773 111.904 43.5524 109.993 38.9608C108.083 34.3692 105.28 30.2023 101.748 26.7011ZM105.3 115.02C105.276 116.451 104.691 117.816 103.671 118.82C102.65 119.824 101.276 120.386 99.844 120.386C98.4124 120.386 97.0381 119.824 96.0174 118.82C94.9968 117.816 94.4115 116.451 94.3877 115.02V78.6596C94.4115 77.2282 94.9968 75.8634 96.0174 74.8595C97.0381 73.8556 98.4124 73.293 99.844 73.293C101.276 73.293 102.65 73.8556 103.671 74.8595C104.691 75.8634 105.276 77.2282 105.3 78.6596V115.02ZM108.527 112.549V81.1301C112.399 81.5413 115.981 83.3764 118.576 86.2792C121.172 89.182 122.597 92.9455 122.574 96.8396C122.56 100.724 121.121 104.468 118.531 107.363C115.941 110.259 112.38 112.104 108.521 112.549H108.527ZM125.007 102.286C126.057 98.731 126.057 94.9482 125.007 91.3931C126.42 91.44 127.76 92.0344 128.743 93.0507C129.726 94.067 130.276 95.4256 130.276 96.8396C130.276 98.2536 129.726 99.6122 128.743 100.628C127.76 101.645 126.42 102.239 125.007 102.286Z" fill="black"/>
</svg>
