<svg width="150" height="150" viewBox="0 0 150 150" fill="none" xmlns="http://www.w3.org/2000/svg">
<path d="M73.4998 125.25C50.6998 125.25 43.0498 120.6 42.7498 120.3L41.9998 119.85V72.45L40.6498 73.95L21.2998 57.75L21.5998 56.7C23.3998 51.6 26.9998 44.25 29.8498 39.75C37.9498 26.1 47.2498 24.9 58.6498 24.75H59.6998L60.1498 25.65C62.2498 30.3 67.9498 33 75.2998 33C82.6498 33 88.3498 30.3 90.4498 25.65L90.8998 24.75H91.9498C103.2 24.9 112.5 26.1 120.75 39.75C123.45 44.25 126.75 51.3 128.55 56.7L128.85 57.75L108.15 73.65L105 71.4V119.85L104.25 120.3C103.95 120.45 96.2998 125.25 73.4998 125.25ZM44.9998 118.05C47.2498 119.1 55.4998 122.1 73.4998 122.1C91.4998 122.1 99.7498 119.1 102 118.05V65.55L108.15 69.75L125.25 56.55C123.45 51.6 120.45 45.15 118.05 41.25C110.85 29.25 103.35 27.9 92.6998 27.75C89.6998 33 83.2498 36 75.1498 36C67.0498 36 60.5998 33 57.5998 27.75C47.0998 28.05 39.4498 29.25 32.2498 41.25C29.6998 45.45 26.5498 51.75 24.5998 56.7L40.1998 69.6L44.8498 64.65V118.05H44.9998Z" fill="black"/>
</svg>
