<svg width="150" height="150" viewBox="0 0 150 150" fill="none" xmlns="http://www.w3.org/2000/svg">
<path d="M120.39 62.5744C120.069 62.5744 119.752 62.5954 119.44 62.6299C119.317 55.7314 117.199 49.8004 113.341 45.7999C110.581 42.9379 107.076 41.2969 103.726 41.2969H46.2764C42.9254 41.2969 39.4199 42.9379 36.6599 45.7999C32.8019 49.8004 30.6824 55.7314 30.5609 62.6314C30.2444 62.5969 29.9234 62.5744 29.5964 62.5744C24.8234 62.5744 20.9414 66.4639 20.9414 71.2444V90.2794C20.9414 95.0524 24.8234 98.9344 29.5964 98.9344H30.5309V107.204C30.5309 108.033 31.2029 108.704 32.0309 108.704C32.8589 108.704 33.5309 108.033 33.5309 107.204V98.9344H116.473V107.204C116.473 108.033 117.144 108.704 117.973 108.704C118.803 108.704 119.473 108.033 119.473 107.204V98.9344H120.391C125.173 98.9344 129.061 95.0524 129.061 90.2794V71.2444C129.06 66.4639 125.17 62.5744 120.39 62.5744ZM38.8169 47.8834C41.0144 45.6049 43.7324 44.2969 46.2749 44.2969H103.725C106.264 44.2969 108.982 45.6034 111.181 47.8819C114.661 51.4909 116.502 57.0304 116.446 63.5359C113.653 64.9759 111.735 67.8874 111.735 71.2444V76.3594C111.735 77.1874 111.063 77.8594 110.235 77.8594H39.7649C38.9384 77.8594 38.2649 77.1874 38.2649 76.3594V71.2444C38.2649 67.8904 36.3464 64.9819 33.5534 63.5404C33.4964 57.0349 35.3369 51.4924 38.8169 47.8834ZM126.06 90.2809C126.06 93.3979 123.516 95.9359 120.39 95.9359H29.5949C26.4764 95.9359 23.9399 93.3994 23.9399 90.2809V71.2459C23.9399 68.1199 26.4764 65.5759 29.5949 65.5759C32.7209 65.5759 35.2649 68.1199 35.2649 71.2459V76.3609C35.2649 78.8419 37.2839 80.8609 39.7649 80.8609H110.235C112.716 80.8609 114.735 78.8419 114.735 76.3609V71.2459C114.735 68.1199 117.271 65.5759 120.39 65.5759C123.516 65.5759 126.06 68.1199 126.06 71.2459V90.2809Z" fill="black"/>
</svg>
