<svg width="150" height="150" viewBox="0 0 150 150" fill="none" xmlns="http://www.w3.org/2000/svg">
<path d="M65.8755 135C71.0415 135 75.3255 131.2 76.11 126.25C82.842 131.8 89.9655 134.666 90.4755 134.867C90.6525 134.936 90.8385 134.97 91.0245 134.97C91.2225 134.97 91.4205 134.931 91.6065 134.853C92.487 134.483 113.214 125.591 116.837 108.866C118.989 98.928 113.427 91.824 107.349 89.4285C101.169 86.9895 94.785 88.9935 90.5685 94.5195C86.5575 89.5095 80.769 87.5535 75.087 89.3145C76.101 85.8165 79.3275 83.25 83.1465 83.25H88.764C94.1325 83.25 98.5005 78.8835 98.5005 73.515V26.1105C98.5005 19.9845 93.516 15 87.3885 15H44.361C38.235 15 33.249 19.9845 33.249 26.1105V73.515C33.249 78.8835 37.617 83.25 42.9855 83.25H48.603C53.232 83.25 57 87.0165 57.0015 91.578L55.5 124.625C55.5 130.346 60.1545 135 65.8755 135ZM89.3295 97.9485C89.607 98.391 90.1035 98.7015 90.6165 98.6505C91.1385 98.6445 91.62 98.3685 91.887 97.9185C95.931 91.1385 101.955 90.528 106.248 92.22C111.185 94.1655 115.685 100.005 113.903 108.231C110.927 121.978 94.29 130.312 91.0035 131.836C87.681 130.392 70.8615 122.469 67.56 108.772C65.5875 100.591 69.948 94.647 74.8365 92.5875C76.161 92.0295 77.658 91.689 79.2195 91.689C82.671 91.689 86.436 93.345 89.3295 97.9485ZM48.603 80.25H42.9855C39.2715 80.25 36.249 77.2275 36.249 73.515V26.1105C36.249 21.639 39.888 18 44.361 18H87.3885C91.8615 18 95.5005 21.639 95.5005 26.1105V73.515C95.5005 77.229 92.478 80.25 88.764 80.25H83.1465C77.1495 80.25 72.231 84.909 71.793 90.795C66.6015 93.9315 62.511 100.638 64.6425 109.476C66.018 115.182 69.384 119.919 73.2495 123.696V124.626C73.2495 128.692 69.9405 132.001 65.874 132.001C61.8075 132.001 58.4985 128.692 58.497 124.695L60 91.647C60 85.362 54.888 80.25 48.603 80.25Z" fill="black"/>
<path d="M90.8432 69.8021V27.8576C90.8432 24.7736 88.3352 22.2656 85.2512 22.2656H46.5002C43.4162 22.2656 40.9082 24.7736 40.9082 27.8576V69.8021C40.9082 72.8861 43.4162 75.3941 46.5002 75.3941H85.2497C88.3337 75.3941 90.8432 72.8861 90.8432 69.8021ZM43.9082 69.8021V27.8576C43.9082 26.4296 45.0707 25.2656 46.5002 25.2656H85.2497C86.6792 25.2656 87.8417 26.4281 87.8417 27.8576V69.8021C87.8417 71.2301 86.6792 72.3941 85.2497 72.3941H46.5002C45.0707 72.3941 43.9082 71.2301 43.9082 69.8021Z" fill="black"/>
<path d="M79.5719 56.143L71.9789 63.736C71.3924 64.3225 71.3924 65.2705 71.9789 65.857C72.2714 66.1495 72.6554 66.2965 73.0394 66.2965C73.4234 66.2965 73.8074 66.1495 74.0999 65.857L81.6929 58.264C82.2794 57.6775 82.2794 56.7295 81.6929 56.143C81.1064 55.5565 80.1569 55.5565 79.5719 56.143Z" fill="black"/>
<path d="M80.7937 47.0727C80.2072 46.4862 79.2592 46.4862 78.6727 47.0727L65.3002 60.4452C64.7137 61.0317 64.7137 61.9797 65.3002 62.5662C65.5927 62.8587 65.9767 63.0057 66.3607 63.0057C66.7447 63.0057 67.1287 62.8587 67.4212 62.5662L80.7937 49.1937C81.3787 48.6072 81.3787 47.6577 80.7937 47.0727Z" fill="black"/>
</svg>
